<?xml version="1.0" encoding="UTF-8" standalone="no"?>
<!DOCTYPE svg PUBLIC "-//W3C//DTD SVG 1.1//EN"
 "http://www.w3.org/Graphics/SVG/1.1/DTD/svg11.dtd">
<!-- Generated by graphviz version 2.43.0 (0)
 -->
<!-- Title: xref graph Pages: 1 -->
<svg width="3500pt" height="291pt"
 viewBox="0.00 0.00 3499.58 291.00" xmlns="http://www.w3.org/2000/svg" xmlns:xlink="http://www.w3.org/1999/xlink">
<g id="graph0" class="graph" transform="scale(1 1) rotate(0) translate(4 287)">
<title>xref graph</title>
<polygon fill="white" stroke="transparent" points="-4,4 -4,-287 3495.58,-287 3495.58,4 -4,4"/>
<!-- lib/a1.ex -->
<g id="node1" class="node">
<title>lib/a1.ex</title>
<ellipse fill="none" stroke="black" cx="50.7" cy="-265" rx="50.09" ry="18"/>
<text text-anchor="middle" x="50.7" y="-261.3" font-family="Times,serif" font-size="14.00">lib/a1.ex</text>
</g>
<!-- lib/b1.ex -->
<g id="node2" class="node">
<title>lib/b1.ex</title>
<ellipse fill="none" stroke="black" cx="50.7" cy="-178" rx="50.89" ry="18"/>
<text text-anchor="middle" x="50.7" y="-174.3" font-family="Times,serif" font-size="14.00">lib/b1.ex</text>
</g>
<!-- lib/a1.ex&#45;&gt;lib/b1.ex -->
<g id="edge1" class="edge">
<title>lib/a1.ex&#45;&gt;lib/b1.ex</title>
<path fill="none" stroke="black" d="M50.7,-246.8C50.7,-235.16 50.7,-219.55 50.7,-206.24"/>
<polygon fill="black" stroke="black" points="54.2,-206.18 50.7,-196.18 47.2,-206.18 54.2,-206.18"/>
</g>
<!-- lib/c1.ex -->
<g id="node3" class="node">
<title>lib/c1.ex</title>
<ellipse fill="none" stroke="black" cx="50.7" cy="-91" rx="50.09" ry="18"/>
<text text-anchor="middle" x="50.7" y="-87.3" font-family="Times,serif" font-size="14.00">lib/c1.ex</text>
</g>
<!-- lib/b1.ex&#45;&gt;lib/c1.ex -->
<g id="edge2" class="edge">
<title>lib/b1.ex&#45;&gt;lib/c1.ex</title>
<path fill="none" stroke="black" d="M50.7,-159.8C50.7,-148.16 50.7,-132.55 50.7,-119.24"/>
<polygon fill="black" stroke="black" points="54.2,-119.18 50.7,-109.18 47.2,-119.18 54.2,-119.18"/>
</g>
<!-- lib/a2.ex -->
<g id="node4" class="node">
<title>lib/a2.ex</title>
<ellipse fill="none" stroke="black" cx="169.7" cy="-265" rx="50.09" ry="18"/>
<text text-anchor="middle" x="169.7" y="-261.3" font-family="Times,serif" font-size="14.00">lib/a2.ex</text>
</g>
<!-- lib/b2.ex -->
<g id="node5" class="node">
<title>lib/b2.ex</title>
<ellipse fill="none" stroke="black" cx="169.7" cy="-178" rx="50.89" ry="18"/>
<text text-anchor="middle" x="169.7" y="-174.3" font-family="Times,serif" font-size="14.00">lib/b2.ex</text>
</g>
<!-- lib/a2.ex&#45;&gt;lib/b2.ex -->
<g id="edge3" class="edge">
<title>lib/a2.ex&#45;&gt;lib/b2.ex</title>
<path fill="none" stroke="black" d="M169.7,-246.8C169.7,-235.16 169.7,-219.55 169.7,-206.24"/>
<polygon fill="black" stroke="black" points="173.2,-206.18 169.7,-196.18 166.2,-206.18 173.2,-206.18"/>
</g>
<!-- lib/c2.ex -->
<g id="node6" class="node">
<title>lib/c2.ex</title>
<ellipse fill="none" stroke="black" cx="169.7" cy="-91" rx="50.09" ry="18"/>
<text text-anchor="middle" x="169.7" y="-87.3" font-family="Times,serif" font-size="14.00">lib/c2.ex</text>
</g>
<!-- lib/b2.ex&#45;&gt;lib/c2.ex -->
<g id="edge4" class="edge">
<title>lib/b2.ex&#45;&gt;lib/c2.ex</title>
<path fill="none" stroke="black" d="M169.7,-159.8C169.7,-148.16 169.7,-132.55 169.7,-119.24"/>
<polygon fill="black" stroke="black" points="173.2,-119.18 169.7,-109.18 166.2,-119.18 173.2,-119.18"/>
<text text-anchor="middle" x="203.2" y="-130.8" font-family="Times,serif" font-size="14.00">(compile)</text>
</g>
<!-- lib/a3.ex -->
<g id="node7" class="node">
<title>lib/a3.ex</title>
<ellipse fill="none" stroke="black" cx="521.7" cy="-178" rx="50.09" ry="18"/>
<text text-anchor="middle" x="521.7" y="-174.3" font-family="Times,serif" font-size="14.00">lib/a3.ex</text>
</g>
<!-- lib/b3.ex -->
<g id="node8" class="node">
<title>lib/b3.ex</title>
<ellipse fill="none" stroke="black" cx="521.7" cy="-91" rx="50.89" ry="18"/>
<text text-anchor="middle" x="521.7" y="-87.3" font-family="Times,serif" font-size="14.00">lib/b3.ex</text>
</g>
<!-- lib/a3.ex&#45;&gt;lib/b3.ex -->
<g id="edge5" class="edge">
<title>lib/a3.ex&#45;&gt;lib/b3.ex</title>
<path fill="none" stroke="black" d="M521.7,-159.8C521.7,-148.16 521.7,-132.55 521.7,-119.24"/>
<polygon fill="black" stroke="black" points="525.2,-119.18 521.7,-109.18 518.2,-119.18 525.2,-119.18"/>
</g>
<!-- lib/c3.ex -->
<g id="node9" class="node">
<title>lib/c3.ex</title>
<ellipse fill="none" stroke="black" cx="521.7" cy="-18" rx="50.09" ry="18"/>
<text text-anchor="middle" x="521.7" y="-14.3" font-family="Times,serif" font-size="14.00">lib/c3.ex</text>
</g>
<!-- lib/b3.ex&#45;&gt;lib/c3.ex -->
<g id="edge6" class="edge">
<title>lib/b3.ex&#45;&gt;lib/c3.ex</title>
<path fill="none" stroke="black" d="M521.7,-72.81C521.7,-64.79 521.7,-55.05 521.7,-46.07"/>
<polygon fill="black" stroke="black" points="525.2,-46.03 521.7,-36.03 518.2,-46.03 525.2,-46.03"/>
</g>
<!-- lib/client_one.ex -->
<g id="node10" class="node">
<title>lib/client_one.ex</title>
<ellipse fill="none" stroke="black" cx="323.7" cy="-265" rx="85.59" ry="18"/>
<text text-anchor="middle" x="323.7" y="-261.3" font-family="Times,serif" font-size="14.00">lib/client_one.ex</text>
</g>
<!-- lib/client_one.ex&#45;&gt;lib/a3.ex -->
<g id="edge7" class="edge">
<title>lib/client_one.ex&#45;&gt;lib/a3.ex</title>
<path fill="none" stroke="black" d="M359.55,-248.61C393.78,-233.91 445.29,-211.8 481.03,-196.46"/>
<polygon fill="black" stroke="black" points="482.85,-199.48 490.66,-192.32 480.09,-193.05 482.85,-199.48"/>
<text text-anchor="middle" x="468.2" y="-217.8" font-family="Times,serif" font-size="14.00">(compile)</text>
</g>
<!-- lib/client_three.ex -->
<g id="node11" class="node">
<title>lib/client_three.ex</title>
<ellipse fill="none" stroke="black" cx="521.7" cy="-265" rx="94.48" ry="18"/>
<text text-anchor="middle" x="521.7" y="-261.3" font-family="Times,serif" font-size="14.00">lib/client_three.ex</text>
</g>
<!-- lib/client_three.ex&#45;&gt;lib/a3.ex -->
<g id="edge8" class="edge">
<title>lib/client_three.ex&#45;&gt;lib/a3.ex</title>
<path fill="none" stroke="black" d="M521.7,-246.8C521.7,-235.16 521.7,-219.55 521.7,-206.24"/>
<polygon fill="black" stroke="black" points="525.2,-206.18 521.7,-196.18 518.2,-206.18 525.2,-206.18"/>
<text text-anchor="middle" x="555.2" y="-217.8" font-family="Times,serif" font-size="14.00">(compile)</text>
</g>
<!-- lib/client_two.ex -->
<g id="node12" class="node">
<title>lib/client_two.ex</title>
<ellipse fill="none" stroke="black" cx="720.7" cy="-265" rx="86.38" ry="18"/>
<text text-anchor="middle" x="720.7" y="-261.3" font-family="Times,serif" font-size="14.00">lib/client_two.ex</text>
</g>
<!-- lib/client_two.ex&#45;&gt;lib/a3.ex -->
<g id="edge9" class="edge">
<title>lib/client_two.ex&#45;&gt;lib/a3.ex</title>
<path fill="none" stroke="black" d="M684.66,-248.61C650.01,-233.81 597.74,-211.48 561.79,-196.13"/>
<polygon fill="black" stroke="black" points="563.14,-192.9 552.57,-192.19 560.39,-199.33 563.14,-192.9"/>
<text text-anchor="middle" x="667.2" y="-217.8" font-family="Times,serif" font-size="14.00">(compile)</text>
</g>
<!-- lib/module_recompilation_sandbox.ex -->
<g id="node13" class="node">
<title>lib/module_recompilation_sandbox.ex</title>
<ellipse fill="none" stroke="black" cx="1009.7" cy="-265" rx="184.67" ry="18"/>
<text text-anchor="middle" x="1009.7" y="-261.3" font-family="Times,serif" font-size="14.00">lib/module_recompilation_sandbox.ex</text>
</g>
<!-- lib/strategy_1/after/core_event.ex -->
<g id="node14" class="node">
<title>lib/strategy_1/after/core_event.ex</title>
<ellipse fill="none" stroke="black" cx="1379.7" cy="-265" rx="167.07" ry="18"/>
<text text-anchor="middle" x="1379.7" y="-261.3" font-family="Times,serif" font-size="14.00">lib/strategy_1/after/core_event.ex</text>
</g>
<!-- lib/strategy_1/after/service_log.ex -->
<g id="node15" class="node">
<title>lib/strategy_1/after/service_log.ex</title>
<ellipse fill="none" stroke="black" cx="1379.7" cy="-178" rx="168.17" ry="18"/>
<text text-anchor="middle" x="1379.7" y="-174.3" font-family="Times,serif" font-size="14.00">lib/strategy_1/after/service_log.ex</text>
</g>
<!-- lib/strategy_1/after/core_event.ex&#45;&gt;lib/strategy_1/after/service_log.ex -->
<g id="edge10" class="edge">
<title>lib/strategy_1/after/core_event.ex&#45;&gt;lib/strategy_1/after/service_log.ex</title>
<path fill="none" stroke="black" d="M1379.7,-246.8C1379.7,-235.16 1379.7,-219.55 1379.7,-206.24"/>
<polygon fill="black" stroke="black" points="1383.2,-206.18 1379.7,-196.18 1376.2,-206.18 1383.2,-206.18"/>
</g>
<!-- lib/strategy_1/after/core_event_definition.ex -->
<g id="node16" class="node">
<title>lib/strategy_1/after/core_event_definition.ex</title>
<ellipse fill="none" stroke="black" cx="1780.7" cy="-178" rx="215.26" ry="18"/>
<text text-anchor="middle" x="1780.7" y="-174.3" font-family="Times,serif" font-size="14.00">lib/strategy_1/after/core_event_definition.ex</text>
</g>
<!-- lib/strategy_1/after/event_user_created.ex -->
<g id="node17" class="node">
<title>lib/strategy_1/after/event_user_created.ex</title>
<ellipse fill="none" stroke="black" cx="1780.7" cy="-265" rx="206.86" ry="18"/>
<text text-anchor="middle" x="1780.7" y="-261.3" font-family="Times,serif" font-size="14.00">lib/strategy_1/after/event_user_created.ex</text>
</g>
<!-- lib/strategy_1/after/event_user_created.ex&#45;&gt;lib/strategy_1/after/core_event_definition.ex -->
<g id="edge11" class="edge">
<title>lib/strategy_1/after/event_user_created.ex&#45;&gt;lib/strategy_1/after/core_event_definition.ex</title>
<path fill="none" stroke="black" d="M1780.7,-246.8C1780.7,-235.16 1780.7,-219.55 1780.7,-206.24"/>
<polygon fill="black" stroke="black" points="1784.2,-206.18 1780.7,-196.18 1777.2,-206.18 1784.2,-206.18"/>
<text text-anchor="middle" x="1814.2" y="-217.8" font-family="Times,serif" font-size="14.00">(compile)</text>
</g>
<!-- lib/strategy_1/before/core_event.ex -->
<g id="node18" class="node">
<title>lib/strategy_1/before/core_event.ex</title>
<ellipse fill="none" stroke="black" cx="2219.7" cy="-178" rx="174.37" ry="18"/>
<text text-anchor="middle" x="2219.7" y="-174.3" font-family="Times,serif" font-size="14.00">lib/strategy_1/before/core_event.ex</text>
</g>
<!-- lib/strategy_1/before/service_log.ex -->
<g id="node19" class="node">
<title>lib/strategy_1/before/service_log.ex</title>
<ellipse fill="none" stroke="black" cx="2219.7" cy="-91" rx="175.47" ry="18"/>
<text text-anchor="middle" x="2219.7" y="-87.3" font-family="Times,serif" font-size="14.00">lib/strategy_1/before/service_log.ex</text>
</g>
<!-- lib/strategy_1/before/core_event.ex&#45;&gt;lib/strategy_1/before/service_log.ex -->
<g id="edge12" class="edge">
<title>lib/strategy_1/before/core_event.ex&#45;&gt;lib/strategy_1/before/service_log.ex</title>
<path fill="none" stroke="black" d="M2219.7,-159.8C2219.7,-148.16 2219.7,-132.55 2219.7,-119.24"/>
<polygon fill="black" stroke="black" points="2223.2,-119.18 2219.7,-109.18 2216.2,-119.18 2223.2,-119.18"/>
</g>
<!-- lib/strategy_1/before/event_user_created.ex -->
<g id="node20" class="node">
<title>lib/strategy_1/before/event_user_created.ex</title>
<ellipse fill="none" stroke="black" cx="2219.7" cy="-265" rx="213.66" ry="18"/>
<text text-anchor="middle" x="2219.7" y="-261.3" font-family="Times,serif" font-size="14.00">lib/strategy_1/before/event_user_created.ex</text>
</g>
<!-- lib/strategy_1/before/event_user_created.ex&#45;&gt;lib/strategy_1/before/core_event.ex -->
<g id="edge13" class="edge">
<title>lib/strategy_1/before/event_user_created.ex&#45;&gt;lib/strategy_1/before/core_event.ex</title>
<path fill="none" stroke="black" d="M2219.7,-246.8C2219.7,-235.16 2219.7,-219.55 2219.7,-206.24"/>
<polygon fill="black" stroke="black" points="2223.2,-206.18 2219.7,-196.18 2216.2,-206.18 2223.2,-206.18"/>
<text text-anchor="middle" x="2253.2" y="-217.8" font-family="Times,serif" font-size="14.00">(compile)</text>
</g>
<!-- lib/strategy_2/after/queries.ex -->
<g id="node21" class="node">
<title>lib/strategy_2/after/queries.ex</title>
<ellipse fill="none" stroke="black" cx="2602.7" cy="-178" rx="151.37" ry="18"/>
<text text-anchor="middle" x="2602.7" y="-174.3" font-family="Times,serif" font-size="14.00">lib/strategy_2/after/queries.ex</text>
</g>
<!-- lib/strategy_2/after/resolver.ex -->
<g id="node22" class="node">
<title>lib/strategy_2/after/resolver.ex</title>
<ellipse fill="none" stroke="black" cx="2950.7" cy="-265" rx="153.27" ry="18"/>
<text text-anchor="middle" x="2950.7" y="-261.3" font-family="Times,serif" font-size="14.00">lib/strategy_2/after/resolver.ex</text>
</g>
<!-- lib/strategy_2/after/services_user.ex -->
<g id="node23" class="node">
<title>lib/strategy_2/after/services_user.ex</title>
<ellipse fill="none" stroke="black" cx="2950.7" cy="-178" rx="178.97" ry="18"/>
<text text-anchor="middle" x="2950.7" y="-174.3" font-family="Times,serif" font-size="14.00">lib/strategy_2/after/services_user.ex</text>
</g>
<!-- lib/strategy_2/after/resolver.ex&#45;&gt;lib/strategy_2/after/services_user.ex -->
<g id="edge14" class="edge">
<title>lib/strategy_2/after/resolver.ex&#45;&gt;lib/strategy_2/after/services_user.ex</title>
<path fill="none" stroke="black" d="M2950.7,-246.8C2950.7,-235.16 2950.7,-219.55 2950.7,-206.24"/>
<polygon fill="black" stroke="black" points="2954.2,-206.18 2950.7,-196.18 2947.2,-206.18 2954.2,-206.18"/>
</g>
<!-- lib/strategy_2/after/schema.ex -->
<g id="node24" class="node">
<title>lib/strategy_2/after/schema.ex</title>
<ellipse fill="none" stroke="black" cx="2602.7" cy="-265" rx="151.37" ry="18"/>
<text text-anchor="middle" x="2602.7" y="-261.3" font-family="Times,serif" font-size="14.00">lib/strategy_2/after/schema.ex</text>
</g>
<!-- lib/strategy_2/after/schema.ex&#45;&gt;lib/strategy_2/after/queries.ex -->
<g id="edge15" class="edge">
<title>lib/strategy_2/after/schema.ex&#45;&gt;lib/strategy_2/after/queries.ex</title>
<path fill="none" stroke="black" d="M2602.7,-246.8C2602.7,-235.16 2602.7,-219.55 2602.7,-206.24"/>
<polygon fill="black" stroke="black" points="2606.2,-206.18 2602.7,-196.18 2599.2,-206.18 2606.2,-206.18"/>
<text text-anchor="middle" x="2636.2" y="-217.8" font-family="Times,serif" font-size="14.00">(compile)</text>
</g>
<!-- lib/strategy_2/before/queries.ex -->
<g id="node25" class="node">
<title>lib/strategy_2/before/queries.ex</title>
<ellipse fill="none" stroke="black" cx="3305.7" cy="-178" rx="158.67" ry="18"/>
<text text-anchor="middle" x="3305.7" y="-174.3" font-family="Times,serif" font-size="14.00">lib/strategy_2/before/queries.ex</text>
</g>
<!-- lib/strategy_2/before/resolver.ex -->
<g id="node26" class="node">
<title>lib/strategy_2/before/resolver.ex</title>
<ellipse fill="none" stroke="black" cx="3305.7" cy="-91" rx="161.37" ry="18"/>
<text text-anchor="middle" x="3305.7" y="-87.3" font-family="Times,serif" font-size="14.00">lib/strategy_2/before/resolver.ex</text>
</g>
<!-- lib/strategy_2/before/queries.ex&#45;&gt;lib/strategy_2/before/resolver.ex -->
<g id="edge16" class="edge">
<title>lib/strategy_2/before/queries.ex&#45;&gt;lib/strategy_2/before/resolver.ex</title>
<path fill="none" stroke="black" d="M3305.7,-159.8C3305.7,-148.16 3305.7,-132.55 3305.7,-119.24"/>
<polygon fill="black" stroke="black" points="3309.2,-119.18 3305.7,-109.18 3302.2,-119.18 3309.2,-119.18"/>
</g>
<!-- lib/strategy_2/before/services_user.ex -->
<g id="node27" class="node">
<title>lib/strategy_2/before/services_user.ex</title>
<ellipse fill="none" stroke="black" cx="3305.7" cy="-18" rx="185.77" ry="18"/>
<text text-anchor="middle" x="3305.7" y="-14.3" font-family="Times,serif" font-size="14.00">lib/strategy_2/before/services_user.ex</text>
</g>
<!-- lib/strategy_2/before/resolver.ex&#45;&gt;lib/strategy_2/before/services_user.ex -->
<g id="edge17" class="edge">
<title>lib/strategy_2/before/resolver.ex&#45;&gt;lib/strategy_2/before/services_user.ex</title>
<path fill="none" stroke="black" d="M3305.7,-72.81C3305.7,-64.79 3305.7,-55.05 3305.7,-46.07"/>
<polygon fill="black" stroke="black" points="3309.2,-46.03 3305.7,-36.03 3302.2,-46.03 3309.2,-46.03"/>
</g>
<!-- lib/strategy_2/before/schema.ex -->
<g id="node28" class="node">
<title>lib/strategy_2/before/schema.ex</title>
<ellipse fill="none" stroke="black" cx="3305.7" cy="-265" rx="159.47" ry="18"/>
<text text-anchor="middle" x="3305.7" y="-261.3" font-family="Times,serif" font-size="14.00">lib/strategy_2/before/schema.ex</text>
</g>
<!-- lib/strategy_2/before/schema.ex&#45;&gt;lib/strategy_2/before/queries.ex -->
<g id="edge18" class="edge">
<title>lib/strategy_2/before/schema.ex&#45;&gt;lib/strategy_2/before/queries.ex</title>
<path fill="none" stroke="black" d="M3305.7,-246.8C3305.7,-235.16 3305.7,-219.55 3305.7,-206.24"/>
<polygon fill="black" stroke="black" points="3309.2,-206.18 3305.7,-196.18 3302.2,-206.18 3309.2,-206.18"/>
<text text-anchor="middle" x="3339.2" y="-217.8" font-family="Times,serif" font-size="14.00">(compile)</text>
</g>
</g>
</svg>
